<?xml version="1.0" standalone="no"?>
<!DOCTYPE svg PUBLIC "-//W3C//DTD SVG 20010904//EN"
 "http://www.w3.org/TR/2001/REC-SVG-20010904/DTD/svg10.dtd">
<svg version="1.0" xmlns="http://www.w3.org/2000/svg"
 width="700.000000pt" height="700.000000pt" viewBox="0 0 700.000000 700.000000"
 preserveAspectRatio="xMidYMid meet">
<metadata>
Created by potrace 1.11, written by Peter Selinger 2001-2013
</metadata>
<g transform="translate(0.000000,700.000000) scale(0.100000,-0.100000)"
fill="#000000" stroke="none">
<path d="M3367 6964 c-1 -1 -50 -5 -108 -8 -59 -4 -115 -8 -125 -10 -11 -2
-46 -7 -79 -10 -578 -67 -1195 -323 -1675 -695 -147 -114 -283 -239 -420 -386
-444 -478 -727 -1035 -865 -1705 -60 -296 -76 -765 -35 -1060 5 -36 12 -87 15
-115 3 -27 7 -57 10 -65 2 -8 6 -26 9 -40 2 -14 7 -43 11 -65 25 -137 104
-402 180 -599 30 -79 146 -319 198 -413 208 -367 537 -753 852 -999 467 -363
943 -584 1495 -693 418 -83 933 -85 1320 -6 490 101 880 262 1280 528 250 166
473 365 710 632 256 289 511 741 648 1150 56 168 120 432 137 572 4 26 10 75
15 108 22 151 30 436 17 640 -55 888 -461 1730 -1123 2335 -309 282 -669 507
-1049 658 -275 109 -603 194 -840 217 -38 4 -72 9 -75 10 -16 9 -493 27 -503
19z m358 -79 c61 -4 121 -8 135 -10 14 -2 50 -6 80 -10 30 -3 82 -11 115 -17
33 -6 72 -12 87 -14 60 -8 321 -77 443 -118 627 -210 1185 -608 1599 -1139
251 -323 447 -703 566 -1099 23 -76 43 -150 46 -165 3 -16 11 -53 19 -83 7
-30 18 -84 24 -120 6 -36 13 -74 15 -85 2 -11 7 -49 11 -85 4 -36 9 -73 11
-84 21 -111 20 -621 -2 -730 -2 -11 -6 -43 -9 -70 -3 -27 -12 -86 -20 -131
-73 -419 -219 -813 -436 -1172 -60 -100 -200 -307 -218 -323 -4 -3 -33 -39
-66 -80 -386 -483 -976 -887 -1580 -1080 -121 -38 -351 -96 -420 -106 -27 -3
-53 -8 -56 -10 -3 -1 -28 -6 -55 -9 -27 -3 -58 -8 -69 -10 -11 -2 -51 -7 -90
-10 -38 -4 -90 -9 -115 -11 -67 -7 -427 -6 -495 1 -184 18 -217 23 -345 45
-1476 260 -2618 1486 -2775 2980 -3 30 -8 78 -10 105 -8 69 -8 430 -1 496 3
30 8 81 12 114 10 98 11 108 18 155 172 1155 947 2151 2031 2615 195 83 527
184 695 210 47 8 69 11 110 20 14 2 52 7 85 11 33 3 69 8 80 10 11 2 88 7 170
10 83 4 151 8 153 9 3 3 121 -2 257 -10z"/>
<path d="M1222 4589 l3 -1082 21 -3 c14 -2 23 3 26 14 2 9 3 466 3 1015 -1
548 1 997 5 997 3 0 163 -158 355 -350 l350 -350 350 350 c193 192 353 350
356 350 3 0 5 -453 4 -1007 0 -555 3 -1020 8 -1035 l9 -28 381 -2 380 -3 0
-1043 0 -1043 26 3 26 3 0 1040 0 1040 363 3 362 2 0 -1060 c0 -583 2 -1060 5
-1060 3 0 174 169 380 375 206 206 377 375 379 375 3 0 174 -169 380 -375 206
-206 377 -375 380 -375 3 0 5 489 4 1088 l-3 1087 -22 3 c-17 2 -23 -2 -24
-15 0 -10 -1 -474 -1 -1032 l-1 -1013 -356 356 -356 356 -350 -350 c-192 -192
-353 -350 -356 -350 -3 0 -6 455 -5 1010 0 730 -3 1013 -12 1022 -8 8 -226 11
-776 10 l-766 0 0 1074 c0 591 -2 1074 -5 1074 -3 0 -168 -163 -368 -362 -199
-200 -370 -369 -379 -376 -15 -12 -61 30 -398 368 l-380 381 2 -1082z"/>
</g>
</svg>
